<svg xmlns="http://www.w3.org/2000/svg" xmlns:xlink="http://www.w3.org/1999/xlink" width="500" zoomAndPan="magnify" viewBox="0 0 375 374.999991" height="500" preserveAspectRatio="xMidYMid meet" version="1.0"><defs><filter x="0%" y="0%" width="100%" height="100%" id="5ea3c786e7"><feColorMatrix values="0 0 0 0 1 0 0 0 0 1 0 0 0 0 1 0 0 0 1 0" color-interpolation-filters="sRGB"/></filter><g/><mask id="4a2c5d56df"><g filter="url(#5ea3c786e7)"><rect x="-37.5" width="450" fill="#000000" y="-37.499999" height="449.999989" fill-opacity="0.349"/></g></mask><clipPath id="59e177e99f"><path d="M 25 0.5 L 35 0.5 L 35 12 L 25 12 Z M 25 0.5 " clip-rule="nonzero"/></clipPath><clipPath id="0726352180"><path d="M 42 115 L 52.683594 115 L 52.683594 144 L 42 144 Z M 42 115 " clip-rule="nonzero"/></clipPath><clipPath id="5e3750c3b8"><path d="M 0.183594 121 L 23 121 L 23 137 L 0.183594 137 Z M 0.183594 121 " clip-rule="nonzero"/></clipPath><clipPath id="8fbdbb24d9"><rect x="0" width="54" y="0" height="151"/></clipPath></defs><rect x="-37.5" width="450" fill="#ffffff" y="-37.499999" height="449.999989" fill-opacity="1"/><rect x="-37.5" width="450" fill="#ffffff" y="-37.499999" height="449.999989" fill-opacity="1"/><rect x="-37.5" width="450" fill="#ffdddd" y="-37.499999" height="449.999989" fill-opacity="1"/><g fill="#826644" fill-opacity="1"><g transform="translate(73.20134, 221.846573)"><g><path d="M 16.703125 -37.546875 C 22.960938 -37.546875 27.644531 -35.976562 30.75 -32.84375 C 33.863281 -29.71875 35.421875 -25.171875 35.421875 -19.203125 C 35.421875 -15.347656 34.660156 -11.96875 33.140625 -9.0625 C 31.617188 -6.164062 29.414062 -3.929688 26.53125 -2.359375 C 23.65625 -0.785156 20.222656 0 16.234375 0 L 13.15625 -0.046875 C 11.175781 -0.117188 9.722656 -0.15625 8.796875 -0.15625 C 5.898438 -0.15625 3.710938 -0.101562 2.234375 0 L 2.234375 -1.0625 C 3.503906 -1.132812 4.429688 -1.273438 5.015625 -1.484375 C 5.597656 -1.691406 5.992188 -2.097656 6.203125 -2.703125 C 6.410156 -3.304688 6.515625 -4.28125 6.515625 -5.625 L 6.515625 -31.921875 C 6.515625 -33.265625 6.410156 -34.238281 6.203125 -34.84375 C 5.992188 -35.445312 5.597656 -35.851562 5.015625 -36.0625 C 4.429688 -36.269531 3.503906 -36.410156 2.234375 -36.484375 L 2.234375 -37.546875 C 3.460938 -37.441406 5.175781 -37.390625 7.375 -37.390625 L 11.875 -37.4375 C 14.28125 -37.507812 15.890625 -37.546875 16.703125 -37.546875 Z M 15.375 -36.59375 C 14.28125 -36.59375 13.457031 -36.46875 12.90625 -36.21875 C 12.363281 -35.96875 11.984375 -35.523438 11.765625 -34.890625 C 11.554688 -34.253906 11.453125 -33.300781 11.453125 -32.03125 L 11.453125 -5.515625 C 11.453125 -4.242188 11.554688 -3.289062 11.765625 -2.65625 C 11.984375 -2.019531 12.363281 -1.578125 12.90625 -1.328125 C 13.457031 -1.078125 14.300781 -0.953125 15.4375 -0.953125 C 19.175781 -0.953125 22.125 -1.628906 24.28125 -2.984375 C 26.4375 -4.347656 27.945312 -6.335938 28.8125 -8.953125 C 29.6875 -11.578125 30.125 -14.921875 30.125 -18.984375 C 30.125 -23.046875 29.644531 -26.359375 28.6875 -28.921875 C 27.738281 -31.484375 26.191406 -33.398438 24.046875 -34.671875 C 21.910156 -35.953125 19.019531 -36.59375 15.375 -36.59375 Z M 15.375 -36.59375 "/></g></g></g><g fill="#826644" fill-opacity="1"><g transform="translate(122.137458, 221.846573)"><g><path d="M 35 -2.65625 C 34.1875 -1.445312 33.375 -0.578125 32.5625 -0.046875 C 31.75 0.484375 30.671875 0.75 29.328125 0.75 C 27.878906 0.75 26.6875 0.328125 25.75 -0.515625 C 24.8125 -1.367188 24.113281 -2.859375 23.65625 -4.984375 L 22.484375 -10.28125 C 22.054688 -12.125 21.65625 -13.539062 21.28125 -14.53125 C 20.914062 -15.519531 20.363281 -16.3125 19.625 -16.90625 C 18.882812 -17.507812 17.84375 -17.8125 16.5 -17.8125 L 11.453125 -17.8125 L 11.453125 -5.625 C 11.453125 -4.28125 11.554688 -3.304688 11.765625 -2.703125 C 11.984375 -2.097656 12.382812 -1.691406 12.96875 -1.484375 C 13.550781 -1.273438 14.476562 -1.132812 15.75 -1.0625 L 15.75 0 C 14.125 -0.101562 11.878906 -0.15625 9.015625 -0.15625 C 5.972656 -0.15625 3.710938 -0.101562 2.234375 0 L 2.234375 -1.0625 C 3.503906 -1.132812 4.429688 -1.273438 5.015625 -1.484375 C 5.597656 -1.691406 5.992188 -2.097656 6.203125 -2.703125 C 6.410156 -3.304688 6.515625 -4.28125 6.515625 -5.625 L 6.515625 -31.921875 C 6.515625 -33.265625 6.410156 -34.238281 6.203125 -34.84375 C 5.992188 -35.445312 5.597656 -35.851562 5.015625 -36.0625 C 4.429688 -36.269531 3.503906 -36.410156 2.234375 -36.484375 L 2.234375 -37.546875 C 3.710938 -37.441406 5.867188 -37.390625 8.703125 -37.390625 L 14.421875 -37.4375 C 15.097656 -37.476562 15.859375 -37.5 16.703125 -37.5 C 20.804688 -37.5 23.960938 -36.640625 26.171875 -34.921875 C 28.378906 -33.203125 29.484375 -30.984375 29.484375 -28.265625 C 29.484375 -26.890625 29.15625 -25.503906 28.5 -24.109375 C 27.84375 -22.710938 26.742188 -21.457031 25.203125 -20.34375 C 23.671875 -19.226562 21.671875 -18.472656 19.203125 -18.078125 L 19.828125 -17.984375 C 22.160156 -17.585938 23.859375 -16.875 24.921875 -15.84375 C 25.984375 -14.820312 26.765625 -13.203125 27.265625 -10.984375 L 28.578125 -5.5625 C 28.929688 -3.9375 29.300781 -2.804688 29.6875 -2.171875 C 30.082031 -1.535156 30.613281 -1.21875 31.28125 -1.21875 C 31.882812 -1.21875 32.390625 -1.375 32.796875 -1.6875 C 33.203125 -2.007812 33.671875 -2.523438 34.203125 -3.234375 Z M 15.375 -36.484375 C 14.28125 -36.484375 13.457031 -36.359375 12.90625 -36.109375 C 12.363281 -35.867188 11.984375 -35.425781 11.765625 -34.78125 C 11.554688 -34.144531 11.453125 -33.191406 11.453125 -31.921875 L 11.453125 -18.875 L 15.015625 -18.875 C 18.515625 -18.875 20.914062 -19.648438 22.21875 -21.203125 C 23.53125 -22.765625 24.1875 -24.925781 24.1875 -27.6875 C 24.1875 -30.582031 23.492188 -32.769531 22.109375 -34.25 C 20.734375 -35.738281 18.488281 -36.484375 15.375 -36.484375 Z M 15.375 -36.484375 "/></g></g></g><g fill="#826644" fill-opacity="1"><g transform="translate(167.097406, 221.846573)"><g><path d="M 29.375 -6.78125 C 29.375 -4.769531 29.5 -2.507812 29.75 0 C 27.34375 -0.101562 23.296875 -0.15625 17.609375 -0.15625 C 10.816406 -0.15625 5.691406 -0.101562 2.234375 0 L 2.234375 -1.0625 C 3.503906 -1.132812 4.429688 -1.273438 5.015625 -1.484375 C 5.597656 -1.691406 5.992188 -2.097656 6.203125 -2.703125 C 6.410156 -3.304688 6.515625 -4.28125 6.515625 -5.625 L 6.515625 -31.921875 C 6.515625 -33.265625 6.410156 -34.238281 6.203125 -34.84375 C 5.992188 -35.445312 5.597656 -35.851562 5.015625 -36.0625 C 4.429688 -36.269531 3.503906 -36.410156 2.234375 -36.484375 L 2.234375 -37.546875 C 5.691406 -37.441406 10.816406 -37.390625 17.609375 -37.390625 C 22.804688 -37.390625 26.5 -37.441406 28.6875 -37.546875 C 28.4375 -35.210938 28.3125 -33.125 28.3125 -31.28125 C 28.3125 -29.90625 28.367188 -28.8125 28.484375 -28 L 27.265625 -28 C 27.015625 -30.300781 26.691406 -32.003906 26.296875 -33.109375 C 25.910156 -34.222656 25.257812 -35.035156 24.34375 -35.546875 C 23.425781 -36.066406 22.03125 -36.328125 20.15625 -36.328125 L 15.75 -36.328125 C 14.476562 -36.328125 13.550781 -36.226562 12.96875 -36.03125 C 12.382812 -35.84375 11.984375 -35.445312 11.765625 -34.84375 C 11.554688 -34.238281 11.453125 -33.265625 11.453125 -31.921875 L 11.453125 -19.40625 L 14.953125 -19.40625 C 16.191406 -19.40625 17.144531 -19.695312 17.8125 -20.28125 C 18.488281 -20.863281 18.941406 -21.550781 19.171875 -22.34375 C 19.398438 -23.144531 19.585938 -24.144531 19.734375 -25.34375 L 19.890625 -26.40625 L 21.109375 -26.40625 C 21.003906 -24.925781 20.953125 -23.265625 20.953125 -21.421875 L 20.953125 -18.875 C 20.953125 -17.070312 21.054688 -14.5625 21.265625 -11.34375 L 20.046875 -11.34375 C 20.015625 -11.59375 19.910156 -12.453125 19.734375 -13.921875 C 19.554688 -15.390625 19.066406 -16.492188 18.265625 -17.234375 C 17.472656 -17.972656 16.367188 -18.34375 14.953125 -18.34375 L 11.453125 -18.34375 L 11.453125 -5.625 C 11.453125 -4.28125 11.554688 -3.304688 11.765625 -2.703125 C 11.984375 -2.097656 12.382812 -1.695312 12.96875 -1.5 C 13.550781 -1.3125 14.476562 -1.21875 15.75 -1.21875 L 19.625 -1.21875 C 21.8125 -1.21875 23.476562 -1.507812 24.625 -2.09375 C 25.78125 -2.675781 26.625 -3.613281 27.15625 -4.90625 C 27.6875 -6.195312 28.070312 -8.097656 28.3125 -10.609375 L 29.53125 -10.609375 C 29.425781 -9.648438 29.375 -8.375 29.375 -6.78125 Z M 29.375 -6.78125 "/></g></g></g><g fill="#826644" fill-opacity="1"><g transform="translate(209.989745, 221.846573)"><g><path d="M 13.578125 -38.125 C 15.128906 -38.125 16.351562 -37.957031 17.25 -37.625 C 18.15625 -37.289062 19.085938 -36.804688 20.046875 -36.171875 C 20.828125 -35.671875 21.425781 -35.421875 21.84375 -35.421875 C 22.164062 -35.421875 22.414062 -35.601562 22.59375 -35.96875 C 22.769531 -36.34375 22.910156 -36.941406 23.015625 -37.765625 L 24.234375 -37.765625 C 24.054688 -35.710938 23.96875 -32.101562 23.96875 -26.9375 L 22.75 -26.9375 C 22.539062 -29.800781 21.71875 -32.210938 20.28125 -34.171875 C 18.851562 -36.140625 16.773438 -37.125 14.046875 -37.125 C 12.140625 -37.125 10.582031 -36.546875 9.375 -35.390625 C 8.175781 -34.242188 7.578125 -32.769531 7.578125 -30.96875 C 7.578125 -29.625 7.882812 -28.457031 8.5 -27.46875 C 9.125 -26.476562 9.910156 -25.628906 10.859375 -24.921875 C 11.816406 -24.210938 13.179688 -23.3125 14.953125 -22.21875 L 16.5 -21.265625 C 18.71875 -19.890625 20.472656 -18.675781 21.765625 -17.625 C 23.054688 -16.582031 24.085938 -15.390625 24.859375 -14.046875 C 25.640625 -12.703125 26.03125 -11.128906 26.03125 -9.328125 C 26.03125 -6.109375 24.96875 -3.625 22.84375 -1.875 C 20.726562 -0.125 18.046875 0.75 14.796875 0.75 C 13.097656 0.75 11.707031 0.570312 10.625 0.21875 C 9.550781 -0.132812 8.519531 -0.613281 7.53125 -1.21875 C 6.75 -1.71875 6.148438 -1.96875 5.734375 -1.96875 C 5.410156 -1.96875 5.160156 -1.78125 4.984375 -1.40625 C 4.804688 -1.03125 4.664062 -0.4375 4.5625 0.375 L 3.34375 0.375 C 3.476562 -1.570312 3.546875 -5.816406 3.546875 -12.359375 L 4.765625 -12.359375 C 5.015625 -8.785156 5.898438 -5.882812 7.421875 -3.65625 C 8.941406 -1.425781 11.273438 -0.3125 14.421875 -0.3125 C 16.328125 -0.3125 17.953125 -0.90625 19.296875 -2.09375 C 20.640625 -3.28125 21.3125 -5.039062 21.3125 -7.375 C 21.3125 -9.351562 20.648438 -11.03125 19.328125 -12.40625 C 18.003906 -13.789062 15.910156 -15.347656 13.046875 -17.078125 C 10.960938 -18.347656 9.273438 -19.476562 7.984375 -20.46875 C 6.691406 -21.457031 5.640625 -22.648438 4.828125 -24.046875 C 4.015625 -25.441406 3.609375 -27.078125 3.609375 -28.953125 C 3.609375 -31.921875 4.5625 -34.191406 6.46875 -35.765625 C 8.375 -37.335938 10.742188 -38.125 13.578125 -38.125 Z M 13.578125 -38.125 "/></g></g></g><g fill="#826644" fill-opacity="1"><g transform="translate(249.224003, 221.846573)"><g><path d="M 13.578125 -38.125 C 15.128906 -38.125 16.351562 -37.957031 17.25 -37.625 C 18.15625 -37.289062 19.085938 -36.804688 20.046875 -36.171875 C 20.828125 -35.671875 21.425781 -35.421875 21.84375 -35.421875 C 22.164062 -35.421875 22.414062 -35.601562 22.59375 -35.96875 C 22.769531 -36.34375 22.910156 -36.941406 23.015625 -37.765625 L 24.234375 -37.765625 C 24.054688 -35.710938 23.96875 -32.101562 23.96875 -26.9375 L 22.75 -26.9375 C 22.539062 -29.800781 21.71875 -32.210938 20.28125 -34.171875 C 18.851562 -36.140625 16.773438 -37.125 14.046875 -37.125 C 12.140625 -37.125 10.582031 -36.546875 9.375 -35.390625 C 8.175781 -34.242188 7.578125 -32.769531 7.578125 -30.96875 C 7.578125 -29.625 7.882812 -28.457031 8.5 -27.46875 C 9.125 -26.476562 9.910156 -25.628906 10.859375 -24.921875 C 11.816406 -24.210938 13.179688 -23.3125 14.953125 -22.21875 L 16.5 -21.265625 C 18.71875 -19.890625 20.472656 -18.675781 21.765625 -17.625 C 23.054688 -16.582031 24.085938 -15.390625 24.859375 -14.046875 C 25.640625 -12.703125 26.03125 -11.128906 26.03125 -9.328125 C 26.03125 -6.109375 24.96875 -3.625 22.84375 -1.875 C 20.726562 -0.125 18.046875 0.75 14.796875 0.75 C 13.097656 0.75 11.707031 0.570312 10.625 0.21875 C 9.550781 -0.132812 8.519531 -0.613281 7.53125 -1.21875 C 6.75 -1.71875 6.148438 -1.96875 5.734375 -1.96875 C 5.410156 -1.96875 5.160156 -1.78125 4.984375 -1.40625 C 4.804688 -1.03125 4.664062 -0.4375 4.5625 0.375 L 3.34375 0.375 C 3.476562 -1.570312 3.546875 -5.816406 3.546875 -12.359375 L 4.765625 -12.359375 C 5.015625 -8.785156 5.898438 -5.882812 7.421875 -3.65625 C 8.941406 -1.425781 11.273438 -0.3125 14.421875 -0.3125 C 16.328125 -0.3125 17.953125 -0.90625 19.296875 -2.09375 C 20.640625 -3.28125 21.3125 -5.039062 21.3125 -7.375 C 21.3125 -9.351562 20.648438 -11.03125 19.328125 -12.40625 C 18.003906 -13.789062 15.910156 -15.347656 13.046875 -17.078125 C 10.960938 -18.347656 9.273438 -19.476562 7.984375 -20.46875 C 6.691406 -21.457031 5.640625 -22.648438 4.828125 -24.046875 C 4.015625 -25.441406 3.609375 -27.078125 3.609375 -28.953125 C 3.609375 -31.921875 4.5625 -34.191406 6.46875 -35.765625 C 8.375 -37.335938 10.742188 -38.125 13.578125 -38.125 Z M 13.578125 -38.125 "/></g></g></g><g fill="#66533c" fill-opacity="1"><g transform="translate(162.153056, 167.624989)"><g><path d="M 15.347656 1.042969 C 15.347656 0.167969 15.140625 -0.457031 15.140625 -2.128906 C 15.140625 -5.046875 16.140625 -12.722656 15.222656 -14.304688 C 15.054688 -14.679688 14.679688 -14.890625 14.265625 -14.890625 C 13.972656 -14.890625 13.679688 -14.804688 13.429688 -14.640625 C 12.554688 -14.054688 11.761719 -12.429688 11.21875 -11.386719 C 8.257812 -5.378906 6.632812 2.585938 4.753906 9.425781 L 3.753906 12.429688 C 3.546875 12.886719 3.546875 13.097656 3.085938 13.222656 L 2.667969 11.175781 C 1.542969 4.421875 2.503906 -6.714844 3.378906 -12.804688 C 4.128906 -17.851562 4.671875 -20.8125 5.964844 -25.566406 C 6.214844 -26.402344 6.882812 -27.945312 5.714844 -27.945312 C 4.046875 -27.945312 1.960938 -15.179688 1.835938 -14.347656 C 1.460938 -11.761719 1.125 -9.21875 0.835938 -6.589844 L 0.417969 1.835938 C 0.417969 4.546875 0.667969 14.847656 3.085938 14.847656 C 3.921875 14.847656 4.171875 14.429688 4.546875 13.761719 C 5.296875 11.929688 5.921875 10.136719 6.382812 8.214844 C 7.089844 5.753906 7.714844 3.003906 8.382812 0.375 C 9.257812 -3.210938 11.175781 -9.800781 13.472656 -12.886719 C 13.761719 -13.261719 13.722656 -13.386719 14.222656 -13.511719 C 14.222656 -12.886719 14.304688 -12.511719 14.304688 -12.179688 L 13.679688 -3.835938 C 13.554688 -2.003906 13.554688 2.628906 15.347656 2.628906 C 17.558594 2.628906 19.976562 -6.796875 20.6875 -8.675781 C 21.8125 -11.429688 22.4375 -13.761719 23.816406 -16.808594 C 25.148438 -19.8125 25.898438 -21.519531 27.609375 -24.316406 C 28.234375 -25.398438 29.152344 -26.816406 30.238281 -27.359375 C 31.195312 -25.273438 29.195312 -14.929688 28.820312 -12.59375 C 27.902344 -7.132812 27.527344 -3.460938 26.859375 1.792969 L 25.609375 20.394531 C 25.648438 20.894531 25.648438 21.144531 25.691406 21.855469 C 25.734375 22.523438 26.109375 22.9375 26.441406 22.9375 C 26.734375 22.9375 27.027344 22.605469 27.027344 21.855469 C 27.027344 20.3125 26.984375 18.394531 27.109375 16.890625 C 27.777344 10.886719 28.070312 5.089844 28.988281 -1.085938 L 31.574219 -18.308594 C 31.78125 -19.726562 33.492188 -28.863281 30.238281 -28.863281 C 27.320312 -28.863281 22.523438 -17.265625 21.644531 -15.054688 C 19.976562 -10.800781 18.808594 -6.882812 17.226562 -2.753906 C 16.890625 -1.710938 16.097656 0.582031 15.347656 1.042969 Z M 15.347656 1.042969 "/></g></g></g><g fill="#66533c" fill-opacity="1"><g transform="translate(194.058987, 167.624989)"><g><path d="M 1.210938 16.726562 C 0.542969 16.726562 -0.125 16.472656 -0.457031 16.058594 C -2.128906 14.265625 -0.457031 10.886719 0.542969 9.46875 C 1.585938 7.882812 2.585938 6.589844 3.921875 5.253906 C 4.253906 4.964844 4.421875 4.628906 4.671875 4.421875 L 8.757812 0.792969 C 9.09375 0.542969 9.34375 0.375 9.675781 0.167969 C 9.46875 2.753906 7.550781 10.136719 6.296875 12.429688 C 5.296875 14.222656 3.585938 16.726562 1.210938 16.726562 Z M 2.167969 -3.671875 C 2.167969 -7.675781 4.628906 -10.46875 2.792969 -10.46875 C 1.417969 -10.46875 0.417969 -6.296875 0.417969 -4.503906 C 0.417969 -3.042969 1.085938 -2.128906 2.003906 -2.128906 C 2.460938 -2.128906 2.960938 -2.378906 3.460938 -2.835938 C 4.585938 -3.878906 5.878906 -6.007812 6.714844 -7.339844 C 7.382812 -8.300781 10.511719 -13.761719 10.886719 -14.015625 C 10.886719 -9.21875 10.511719 -6.382812 10.011719 -2.128906 C 9.96875 -1.375 9.59375 -1.375 8.84375 -0.710938 C 8.507812 -0.457031 8.339844 -0.375 8.050781 -0.125 C 4.421875 2.460938 -2.335938 9.382812 -2.335938 13.972656 C -2.335938 16.472656 -0.75 17.933594 1.292969 17.933594 C 4.046875 17.933594 6.421875 15.433594 7.632812 13.136719 C 9.675781 9.800781 11.050781 3.460938 11.636719 -0.667969 C 11.71875 -1.25 11.636719 -1.335938 12.054688 -1.625 C 13.679688 -2.753906 15.390625 -3.835938 17.101562 -4.796875 C 17.601562 -5.089844 20.269531 -6.464844 20.269531 -7.089844 C 20.269531 -7.425781 20.101562 -7.550781 19.894531 -7.550781 C 19.269531 -7.550781 18.144531 -6.671875 17.890625 -6.507812 L 11.929688 -3.042969 C 11.929688 -4.210938 12.304688 -6.921875 12.304688 -9.007812 L 12.304688 -12.21875 C 12.304688 -13.054688 12.34375 -16.140625 11.46875 -16.140625 C 10.59375 -16.140625 10.59375 -15.847656 9.925781 -14.765625 C 8.464844 -12.304688 4.296875 -4.753906 2.167969 -3.671875 Z M 2.167969 -3.671875 "/></g></g></g><g mask="url(#4a2c5d56df)"><g transform="matrix(1, 0, 0, 1, 149, 112)"><g clip-path="url(#8fbdbb24d9)"><path fill="#fffdf8" d="M 31.894531 5.945312 C 32.5 5.601562 33.324219 3.636719 32.609375 2.558594 C 31.894531 1.480469 27.648438 1.960938 26.851562 3.953125 C 26.058594 5.945312 25.304688 8.816406 25.5 14.15625 C 25.703125 19.496094 22.445312 23.402344 23 23.839844 C 23.554688 24.277344 25.859375 24.277344 27.289062 22.960938 C 28.71875 21.648438 28.363281 18.140625 27.964844 17.183594 C 27.566406 16.226562 26.257812 12.121094 26.535156 9.691406 C 26.8125 7.261719 29.039062 7.578125 31.894531 5.945312 " fill-opacity="1" fill-rule="nonzero"/><path fill="#fffdf8" d="M 38.089844 24.4375 C 37.488281 24.304688 35.46875 23.121094 34.992188 21.410156 C 34.515625 19.695312 36.265625 13.957031 36.421875 13.121094 C 36.582031 12.28125 37.496094 14.792969 37.375 16.984375 C 37.257812 19.175781 39.164062 24.675781 38.089844 24.4375 " fill-opacity="1" fill-rule="nonzero"/><path fill="#000000" d="M 31.886719 12.769531 C 31.886719 12.769531 32.113281 10.308594 34.21875 9.574219 C 36.324219 8.835938 38.089844 9.890625 38.089844 9.890625 C 38.089844 9.890625 35.433594 9.773438 34.199219 10.289062 C 32.53125 10.988281 31.933594 13.398438 31.886719 12.769531 " fill-opacity="1" fill-rule="nonzero"/><path fill="#000000" d="M 36.128906 7.84375 C 36.136719 7.917969 35.726562 7.414062 35.746094 7.597656 C 35.921875 9.113281 35.847656 11.121094 35.609375 12.621094 C 35.300781 14.582031 34.167969 16.601562 32.867188 18.082031 C 32.476562 18.53125 31.863281 19.460938 31.242188 19.097656 C 27.90625 17.148438 27.304688 12.832031 27.25 9.296875 C 27.253906 9.386719 26.886719 9.691406 26.890625 9.886719 C 26.921875 11.902344 27.121094 14.097656 27.96875 15.9375 C 28.523438 17.136719 29.460938 18.191406 30.417969 19.082031 C 30.996094 19.613281 31.390625 19.988281 32.058594 19.480469 C 33.535156 18.351562 34.699219 16.3125 35.375 14.605469 C 36.210938 12.492188 36.386719 10.097656 36.128906 7.84375 " fill-opacity="1" fill-rule="nonzero"/><path fill="#000000" d="M 33.683594 4.390625 C 33.554688 4.585938 33.398438 4.722656 33.324219 4.949219 C 33.042969 5.847656 32.0625 6.480469 31.289062 6.863281 C 30.152344 7.425781 28.921875 7.800781 27.824219 8.4375 C 26.8125 9.023438 26.40625 10.402344 26.050781 11.433594 C 25.234375 13.804688 24.730469 16.253906 24.042969 18.65625 C 23.019531 22.207031 21.578125 23.410156 20.679688 24.914062 C 20.503906 25.210938 20.898438 25.535156 21.285156 24.886719 C 22.222656 23.316406 23.058594 22.171875 23.773438 20.492188 C 24.898438 17.859375 25.5625 14.714844 26.394531 11.984375 C 26.5625 11.441406 26.742188 10.902344 26.929688 10.367188 C 27.140625 9.765625 27.144531 9.535156 27.667969 9.234375 C 28.929688 8.503906 30.214844 8.128906 31.488281 7.414062 C 32.667969 6.75 33.589844 5.96875 34 4.652344 C 34.0625 4.453125 33.703125 4.359375 33.683594 4.390625 " fill-opacity="1" fill-rule="nonzero"/><path fill="#000000" d="M 26.695312 7.261719 C 24.984375 9.714844 25.117188 12.808594 24.90625 15.6875 C 24.914062 15.585938 25.25 15.296875 25.265625 15.097656 C 25.480469 12.160156 25.46875 8.417969 27.925781 6.378906 C 29.398438 5.15625 31.664062 4.851562 33.523438 5.042969 C 33.664062 5.054688 33.835938 4.414062 33.882812 4.417969 C 31.222656 4.152344 28.265625 5.003906 26.695312 7.261719 " fill-opacity="1" fill-rule="nonzero"/><path fill="#000000" d="M 33.800781 4.519531 C 32.507812 3.179688 29.742188 3.320312 28.144531 3.722656 C 27.148438 3.972656 26.324219 4.648438 25.949219 5.605469 C 25.925781 5.664062 26.582031 4.917969 26.695312 4.835938 C 27.019531 4.597656 27.40625 4.464844 27.785156 4.34375 C 28.808594 4.023438 29.972656 4.0625 31.023438 4.183594 C 31.820312 4.277344 32.859375 4.535156 33.445312 5.140625 C 33.4375 5.132812 33.882812 4.601562 33.800781 4.519531 " fill-opacity="1" fill-rule="nonzero"/><g clip-path="url(#59e177e99f)"><path fill="#000000" d="M 32.191406 1.152344 C 30.65625 0.589844 28.660156 1.402344 27.585938 2.519531 C 25.351562 4.84375 25.171875 8.796875 25.222656 11.800781 C 25.222656 11.710938 25.585938 11.40625 25.582031 11.210938 C 25.527344 7.933594 25.625 3.183594 29.246094 1.890625 C 30.339844 1.5 31.75 1.460938 32.667969 2.253906 C 33.324219 2.816406 33.574219 4.261719 33.722656 5.101562 C 33.699219 4.960938 34.117188 4.683594 34.082031 4.480469 C 33.855469 3.203125 33.515625 1.636719 32.191406 1.152344 " fill-opacity="1" fill-rule="nonzero"/></g><path fill="#000000" d="M 39.679688 24.386719 C 37.976562 20.660156 38.179688 16.25 37.691406 12.257812 C 37.476562 10.539062 37.222656 8.609375 36.089844 7.222656 C 35.703125 6.746094 35.175781 6.433594 34.804688 5.9375 C 34.414062 5.414062 34.160156 4.730469 34 4.101562 C 34.03125 4.222656 33.59375 4.527344 33.644531 4.722656 C 33.976562 6.046875 34.714844 6.78125 35.621094 7.71875 C 36.820312 8.957031 37.078125 10.96875 37.296875 12.59375 C 37.851562 16.675781 37.578125 21.1875 39.320312 25.007812 C 39.285156 24.925781 39.753906 24.546875 39.679688 24.386719 " fill-opacity="1" fill-rule="nonzero"/><path fill="#000000" d="M 35.574219 4.019531 C 35.109375 3.386719 34.359375 2.65625 33.542969 2.527344 C 33.414062 2.507812 33.394531 3.101562 33.367188 3.097656 C 34.09375 3.210938 34.558594 3.867188 35.023438 4.394531 C 36.855469 6.488281 37.164062 9.738281 37.273438 12.378906 C 37.269531 12.292969 37.644531 11.980469 37.636719 11.789062 C 37.527344 9.140625 37.195312 6.214844 35.574219 4.019531 " fill-opacity="1" fill-rule="nonzero"/><path fill="#000000" d="M 32.609375 1.363281 C 32.429688 1.390625 32.707031 1.808594 32.609375 1.820312 C 35.40625 1.414062 36.433594 5.703125 36.761719 7.621094 C 36.738281 7.480469 36.992188 7.308594 36.957031 7.101562 C 36.632812 5.183594 35.40625 0.957031 32.609375 1.363281 " fill-opacity="1" fill-rule="nonzero"/><path fill="#000000" d="M 37.179688 24.476562 C 35.652344 20.074219 36.28125 14.757812 36.203125 10.191406 C 36.207031 10.28125 35.902344 10.570312 35.90625 10.761719 C 35.980469 15.34375 35.109375 20.308594 36.640625 24.726562 C 36.605469 24.625 37.238281 24.65625 37.179688 24.476562 " fill-opacity="1" fill-rule="nonzero"/><path fill="#000000" d="M 26.695312 10.769531 C 26.605469 15.46875 26.421875 20.808594 24.371094 25.113281 C 24.25 25.367188 24.726562 25.21875 24.769531 25.136719 C 26.851562 20.757812 27.082031 14.882812 27.171875 10.109375 C 27.167969 10.203125 26.699219 10.570312 26.695312 10.769531 " fill-opacity="1" fill-rule="nonzero"/><path fill="#000000" d="M 25.203125 15.386719 C 24.988281 16.507812 24.410156 19.417969 23.753906 21.484375 C 23.453125 22.433594 22.5625 24.101562 21.890625 24.855469 C 21.792969 24.960938 22.472656 25.03125 22.503906 24.976562 C 23.339844 23.539062 23.96875 21.945312 24.410156 20.371094 C 24.929688 18.53125 25.203125 16.675781 25.5625 14.796875 C 25.542969 14.914062 25.242188 15.183594 25.203125 15.386719 " fill-opacity="1" fill-rule="nonzero"/><path fill="#000000" d="M 29.183594 19.527344 C 29.132812 18.609375 29.023438 17.902344 28.9375 16.984375 C 28.945312 17.0625 28.542969 16.71875 28.558594 16.90625 C 28.707031 18.519531 28.980469 20.605469 28.886719 22.226562 C 28.835938 23.042969 28.09375 23.503906 27.730469 23.746094 C 27.089844 24.175781 25.910156 24.824219 25.242188 25.214844 C 25.074219 25.3125 25.820312 25.445312 25.738281 25.492188 C 26.929688 24.792969 28.722656 24.039062 29.160156 22.582031 C 29.4375 21.660156 29.234375 20.46875 29.183594 19.527344 " fill-opacity="1" fill-rule="nonzero"/><path fill="#000000" d="M 38.289062 24.9375 C 37.542969 24.570312 36.191406 23.804688 35.488281 23.363281 C 34.558594 22.769531 34.355469 22.261719 34.351562 21.160156 C 34.34375 19.339844 34.539062 17.503906 34.71875 15.695312 C 34.707031 15.800781 34.375 16.082031 34.355469 16.285156 C 34.171875 18.15625 33.984375 20.050781 33.992188 21.933594 C 33.996094 23.65625 36.175781 24.449219 37.515625 25.105469 C 37.578125 25.136719 38.324219 24.953125 38.289062 24.9375 " fill-opacity="1" fill-rule="nonzero"/><path fill="#000000" d="M 43.164062 33.960938 C 43.570312 32.046875 43.898438 30.140625 43.867188 28.183594 C 43.835938 26.230469 42.492188 23.917969 40.140625 24.269531 C 37.8125 24.617188 33.804688 25.21875 33.722656 25.214844 C 35.589844 25.3125 37.535156 25.214844 39.664062 24.914062 C 42.28125 24.546875 43.335938 26.816406 43.371094 29.117188 C 43.433594 32.996094 41.835938 36.617188 41.503906 40.4375 C 41.285156 42.996094 41.625 45.621094 42.082031 48.128906 C 42.054688 47.984375 41.875 42.148438 42.105469 39.476562 C 42.265625 37.609375 42.773438 35.785156 43.164062 33.960938 " fill-opacity="1" fill-rule="nonzero"/><path fill="#000000" d="M 23.339844 24.617188 C 22.398438 24.476562 20.863281 24.527344 20.179688 25.292969 C 19.765625 25.765625 19.425781 26.410156 19.230469 27 C 17.382812 32.507812 20.0625 39.0625 19.65625 45.058594 C 19.453125 48.128906 18.160156 50.945312 17.316406 53.859375 C 16.613281 56.289062 16.449219 58.886719 15.996094 61.371094 C 15.769531 62.605469 15.433594 63.769531 15.058594 64.96875 C 14.609375 66.402344 13.476562 66.8125 12.125 67.222656 C 11.347656 67.460938 10.382812 67.488281 9.644531 67.820312 C 9.21875 68.011719 8.890625 68.691406 8.730469 69.097656 C 8.070312 70.785156 6.023438 74.234375 6.214844 74.050781 C 6.882812 73.417969 8.320312 71.089844 8.964844 69.671875 C 9.160156 69.234375 9.234375 68.582031 9.738281 68.476562 C 10.1875 68.378906 10.203125 68.402344 10.652344 68.296875 C 11.824219 68.011719 13.085938 67.738281 14.097656 67.058594 C 15.121094 66.371094 15.582031 64.535156 15.886719 63.449219 C 16.566406 61.007812 16.890625 58.464844 17.265625 55.964844 C 17.671875 53.242188 18.835938 50.875 19.605469 48.25 C 20.566406 44.984375 20.328125 41.664062 19.929688 38.316406 C 19.523438 34.859375 18.980469 31.441406 19.613281 27.976562 C 19.726562 27.363281 19.894531 26.761719 20.109375 26.175781 C 20.402344 25.371094 21.089844 25.269531 21.847656 25.261719 C 23.148438 25.25 24.660156 25.386719 25.960938 25.492188 C 27.0625 25.585938 28.539062 25.652344 29.59375 25.554688 C 29.820312 25.53125 25.433594 24.925781 23.339844 24.617188 " fill-opacity="1" fill-rule="nonzero"/><path fill="#000000" d="M 24.449219 38.386719 C 24.21875 41.058594 23.847656 44.570312 23.6875 47.246094 C 23.582031 48.980469 23.570312 50.675781 23.28125 52.398438 C 22.816406 55.164062 21.59375 57.53125 20.300781 60.003906 C 19.3125 61.898438 18.171875 63.824219 17.003906 65.609375 C 16.738281 66.015625 16.445312 66.40625 16.191406 66.820312 C 15.761719 67.519531 15.777344 68.261719 15.375 68.972656 C 14.910156 69.800781 14.609375 71.0625 13.628906 71.289062 C 12.808594 71.476562 11.972656 71.757812 11.210938 72.109375 C 10.902344 72.253906 10.601562 72.398438 10.339844 72.621094 C 9.609375 73.246094 9.429688 72.335938 10.066406 71.890625 C 10.691406 71.453125 11.574219 71.253906 12.328125 71.171875 C 12.59375 71.144531 12.730469 70.253906 12.863281 70.238281 C 11.289062 70.40625 9.890625 71.113281 9.257812 72.632812 C 9.015625 73.210938 9.015625 74.183594 9.847656 73.535156 C 10.707031 72.863281 11.871094 72.550781 12.90625 72.265625 C 13.503906 72.101562 13.722656 72.054688 14.109375 71.523438 C 14.710938 70.699219 15.226562 69.816406 15.726562 68.929688 C 15.914062 68.597656 16.097656 68.265625 16.253906 67.914062 C 16.367188 67.660156 16.394531 67.21875 16.542969 67.007812 C 16.933594 66.464844 17.289062 65.898438 17.648438 65.335938 C 20.148438 61.402344 22.566406 57.253906 23.597656 52.664062 C 24.070312 50.5625 24.113281 48.496094 24.230469 46.363281 C 24.328125 44.554688 24.507812 42.75 24.660156 40.949219 C 24.730469 40.082031 24.910156 39.671875 24.984375 38.804688 C 24.972656 38.960938 24.476562 38.085938 24.449219 38.386719 " fill-opacity="1" fill-rule="nonzero"/><path fill="#000000" d="M 40.6875 31.878906 C 40.519531 30.296875 38.714844 29.570312 37.367188 29.351562 C 35.015625 28.96875 33.375 31.417969 31.058594 31.140625 C 29.066406 30.902344 26.855469 29.382812 24.835938 30.316406 C 23.640625 30.871094 22.957031 32.269531 22.757812 33.527344 C 22.515625 35.046875 23.054688 37.03125 23.992188 38.265625 C 24.902344 39.460938 27.613281 40.753906 27.527344 40.699219 C 25.546875 39.386719 24.023438 37.613281 23.464844 35.210938 C 23.285156 34.453125 23.226562 33.675781 23.269531 32.898438 C 23.335938 31.804688 23.902344 31.308594 24.929688 31.0625 C 26.679688 30.640625 28.574219 31.65625 30.25 32.027344 C 31.789062 32.363281 33.027344 31.453125 34.339844 30.789062 C 36.050781 29.921875 38.15625 30.167969 39.535156 31.546875 C 40.25 32.265625 40.21875 33.222656 40.195312 34.167969 C 40.117188 37.269531 37.550781 39.179688 37.414062 39.222656 C 40.792969 38.105469 40.972656 34.550781 40.6875 31.878906 " fill-opacity="1" fill-rule="nonzero"/><path fill="#000000" d="M 46.566406 59.253906 C 45.691406 55.023438 43.441406 51.292969 41.285156 47.625 C 39.519531 44.628906 38.566406 41.347656 39.117188 37.824219 C 39.089844 37.992188 38.621094 38.402344 38.574219 38.707031 C 38.078125 41.890625 38.785156 45.082031 40.339844 47.851562 C 42.40625 51.527344 44.597656 55.003906 45.757812 59.101562 C 46.886719 63.082031 46.4375 67.375 45.742188 71.394531 C 45.347656 73.667969 44.839844 75.945312 44.148438 78.148438 C 44.085938 78.347656 44.289062 78.050781 44.308594 78.019531 C 44.4375 77.820312 44.589844 77.597656 44.660156 77.371094 C 45.300781 75.324219 45.777344 73.214844 46.175781 71.109375 C 46.90625 67.25 47.367188 63.136719 46.566406 59.253906 " fill-opacity="1" fill-rule="nonzero"/><path fill="#000000" d="M 27.5 80.5 C 27.15625 78.214844 26.476562 75.964844 25.933594 73.71875 C 25.316406 71.152344 24.730469 68.574219 24.261719 65.972656 C 23.859375 63.753906 23.503906 61.480469 23.59375 59.21875 C 23.703125 56.351562 25.34375 53.746094 26.296875 51.097656 C 27.675781 47.269531 27.714844 42.675781 25.421875 39.101562 C 25.46875 39.171875 24.636719 39.179688 24.757812 39.371094 C 26.882812 42.683594 26.910156 47.511719 25.78125 51.132812 C 25.046875 53.5 23.738281 55.847656 23.160156 58.273438 C 22.714844 60.136719 23.03125 61.910156 23.25 63.796875 C 23.78125 68.328125 24.9375 72.789062 26.023438 77.210938 C 26.582031 79.46875 27.148438 81.722656 27.207031 84.0625 C 27.230469 84.871094 27.164062 85.679688 27 86.472656 C 26.953125 86.71875 26.878906 86.960938 26.792969 87.199219 C 26.761719 87.28125 26.75 87.328125 26.742188 87.347656 C 26.585938 87.636719 26.9375 87.585938 27.121094 87.34375 C 28.65625 85.324219 27.851562 82.839844 27.5 80.5 Z M 26.875 87.117188 C 26.882812 87.109375 26.886719 87.101562 26.890625 87.097656 C 26.886719 87.101562 26.882812 87.109375 26.875 87.117188 " fill-opacity="1" fill-rule="nonzero"/><path fill="#000000" d="M 44.429688 78.695312 C 44.523438 78.550781 44.984375 77.625 44.617188 78.179688 C 43.34375 80.109375 42.382812 81.972656 41.863281 84.214844 C 41.382812 86.292969 41.328125 88.898438 41.273438 91.027344 C 41.242188 92.199219 41.347656 93.265625 41.824219 94.335938 C 42.355469 95.515625 42.214844 96.816406 42.070312 98.066406 C 41.886719 99.699219 41.578125 101.3125 41.261719 102.925781 C 40.800781 105.265625 40.292969 107.597656 39.765625 109.925781 C 39.804688 109.746094 41.164062 105.164062 41.5625 103.21875 C 42.117188 100.519531 42.933594 97.542969 42.71875 94.773438 C 42.652344 93.925781 42.207031 93.246094 41.992188 92.445312 C 41.628906 91.097656 41.816406 89.546875 41.921875 88.175781 C 42.171875 84.949219 42.597656 81.46875 44.429688 78.695312 " fill-opacity="1" fill-rule="nonzero"/><path fill="#000000" d="M 42.5625 103.4375 C 42.347656 102.207031 42.296875 100.925781 42.292969 99.675781 C 42.292969 99.8125 41.75 100.265625 41.75 100.558594 C 41.753906 101.628906 41.800781 102.707031 41.941406 103.765625 C 42.195312 105.699219 42.84375 107.335938 42.539062 109.324219 C 42.308594 110.820312 41.375 112.148438 40.832031 113.546875 C 40.199219 115.167969 40.210938 117.011719 40.359375 118.730469 C 40.351562 118.617188 40.945312 114.046875 41.734375 112.242188 C 42.277344 110.996094 42.949219 109.871094 43.25 108.527344 C 43.644531 106.757812 42.863281 105.144531 42.5625 103.4375 " fill-opacity="1" fill-rule="nonzero"/><path fill="#000000" d="M 43.859375 123.539062 C 44.03125 123.980469 44.246094 125.503906 43.703125 124.835938 C 42.800781 123.726562 42.921875 121.433594 42.925781 120.140625 C 42.925781 118.410156 43.058594 116.671875 43.238281 114.949219 C 43.394531 113.449219 43.050781 112.210938 42.289062 110.890625 C 42.339844 110.976562 41.632812 111.613281 41.753906 111.820312 C 42.277344 112.726562 42.730469 113.753906 42.796875 114.808594 C 42.839844 115.484375 42.652344 116.234375 42.59375 116.902344 C 42.398438 119.078125 42.269531 121.289062 42.484375 123.464844 C 42.53125 123.960938 43.292969 127.300781 44.339844 125.84375 C 45.09375 124.785156 43.757812 123.28125 43.859375 123.539062 " fill-opacity="1" fill-rule="nonzero"/><g clip-path="url(#0726352180)"><path fill="#000000" d="M 50.988281 132.800781 C 49.492188 128.652344 47.957031 124.476562 45.988281 120.527344 C 45.152344 118.851562 44.25 117.136719 43.125 115.632812 C 43.160156 115.679688 42.769531 116.730469 42.894531 116.894531 C 46.527344 121.734375 48.15625 127.554688 50.242188 133.152344 C 50.695312 134.375 51.15625 135.613281 51.445312 136.890625 C 51.535156 137.289062 51.316406 138.296875 50.058594 138.519531 C 48.617188 138.773438 47.542969 138.800781 46.777344 140.167969 C 46.257812 141.089844 45.898438 142.0625 45.800781 143.121094 C 45.816406 142.96875 46.316406 142.539062 46.34375 142.238281 C 46.394531 141.6875 46.519531 141.148438 46.691406 140.625 C 47.054688 139.523438 48.605469 139.558594 49.523438 139.449219 C 50.546875 139.328125 51.25 139.074219 51.75 138.191406 C 52.675781 136.5625 51.558594 134.371094 50.988281 132.800781 " fill-opacity="1" fill-rule="nonzero"/></g><path fill="#000000" d="M 45.800781 135.378906 C 45.070312 132.746094 44.082031 130.179688 43.050781 127.652344 C 42.203125 125.574219 41.292969 123.523438 40.34375 121.492188 C 39.652344 120.015625 38.46875 117.492188 39.097656 115.789062 C 39.171875 115.59375 38.957031 115.894531 38.941406 115.921875 C 38.808594 116.121094 38.675781 116.339844 38.589844 116.566406 C 38.101562 117.882812 38.726562 119.65625 39.15625 120.875 C 39.953125 123.125 41.125 125.28125 42.054688 127.484375 C 43.125 130.015625 44.117188 132.585938 44.941406 135.207031 C 45.558594 137.1875 46.527344 139.867188 46.113281 141.964844 C 46.144531 141.789062 46.441406 141.109375 46.5 140.804688 C 46.851562 139.035156 46.269531 137.070312 45.800781 135.378906 " fill-opacity="1" fill-rule="nonzero"/><path fill="#000000" d="M 46.382812 141.402344 C 46.390625 141.527344 45.828125 142 45.839844 142.285156 C 45.859375 142.617188 45.839844 142.945312 45.804688 143.273438 C 45.792969 143.371094 45.773438 143.46875 45.753906 143.5625 C 45.710938 143.585938 45.660156 143.613281 45.597656 143.652344 C 45.308594 143.734375 44.820312 143.496094 44.539062 143.4375 C 43.367188 143.191406 41.175781 142.917969 40.242188 143.898438 C 40.027344 144.125 40.210938 144.652344 40.078125 144.792969 C 40.792969 144.039062 41.921875 144.175781 42.863281 144.226562 C 43.558594 144.261719 44.75 144.828125 45.363281 144.449219 C 46.230469 143.910156 46.429688 142.285156 46.382812 141.402344 " fill-opacity="1" fill-rule="nonzero"/><path fill="#000000" d="M 40.671875 140.765625 C 40.6875 139.492188 40.589844 138.175781 40.425781 136.976562 C 40.445312 137.113281 40.078125 145.390625 39.121094 145.691406 C 37.988281 146.054688 36.894531 145.070312 35.8125 144.789062 C 34.859375 144.542969 33.875 144.992188 32.90625 144.90625 C 31.636719 144.789062 30.386719 144.277344 29.230469 143.777344 C 26.613281 142.648438 24.457031 140.605469 21.769531 139.664062 C 20.832031 139.339844 19.710938 139.3125 18.8125 139.785156 C 17.460938 140.492188 16.324219 141.195312 14.761719 141.316406 C 12.007812 141.527344 9.773438 139.25 8.488281 137.042969 C 7.957031 136.128906 7.980469 135.199219 7.710938 134.214844 C 7.394531 133.050781 5.871094 132.671875 4.84375 132.691406 C 4.597656 132.695312 4.414062 133.621094 4.304688 133.621094 C 5.480469 133.601562 6.664062 134.015625 7.175781 135.148438 C 7.367188 135.574219 7.316406 136.222656 7.425781 136.691406 C 7.554688 137.246094 7.828125 137.757812 8.109375 138.246094 C 9.617188 140.832031 12.179688 142.6875 15.226562 142.117188 C 16.59375 141.859375 17.585938 140.914062 18.867188 140.492188 C 20.097656 140.085938 21.417969 140.601562 22.511719 141.140625 C 23.957031 141.855469 25.238281 142.878906 26.640625 143.679688 C 28.003906 144.464844 29.464844 145.101562 30.972656 145.546875 C 32.109375 145.882812 33.039062 145.859375 34.191406 145.6875 C 35.476562 145.5 36.496094 146.308594 37.691406 146.605469 C 38.824219 146.886719 39.933594 146.363281 40.214844 145.234375 C 40.558594 143.851562 40.652344 142.179688 40.671875 140.765625 " fill-opacity="1" fill-rule="nonzero"/><g clip-path="url(#5e3750c3b8)"><path fill="#000000" d="M 22.246094 121.757812 C 19.90625 124.671875 18.355469 128.015625 12.050781 128.863281 C 11.15625 128.984375 10.253906 128.886719 9.375 128.699219 C 8.433594 128.5 7.601562 128.023438 6.632812 127.945312 C 4.921875 127.816406 3.125 129.570312 2.230469 130.804688 C 1.535156 131.765625 0.617188 133.277344 0.285156 134.429688 C 0.175781 134.8125 0.460938 134.855469 0.832031 134.730469 C 1.578125 134.472656 2.570312 134.007812 3.335938 133.8125 C 5.460938 133.269531 11.101562 132.628906 9.984375 136.546875 C 10.035156 136.363281 10.4375 135.964844 10.523438 135.664062 C 10.710938 135.003906 10.621094 134.269531 10.324219 133.664062 C 9.617188 132.21875 7.480469 132.339844 6.160156 132.460938 C 4.65625 132.601562 3.171875 133.03125 1.746094 133.511719 C 1.296875 133.664062 1.195312 133.6875 1.386719 133.140625 C 1.898438 131.699219 3.023438 130.460938 4.210938 129.535156 C 5.839844 128.261719 7.402344 129.328125 9.113281 129.691406 C 10.90625 130.070312 12.761719 129.675781 14.480469 129.171875 C 17.035156 128.425781 19.308594 126.628906 20.964844 124.566406 C 21.117188 124.375 21.542969 124.125 21.652344 123.910156 C 21.664062 123.882812 22.378906 121.59375 22.246094 121.757812 " fill-opacity="1" fill-rule="nonzero"/></g><path fill="#000000" d="M 27.714844 86.507812 C 27.25 86.90625 26.789062 87.011719 26.386719 87.496094 C 26.183594 87.742188 26.015625 88.039062 25.875 88.324219 C 25.613281 88.847656 25.910156 89.492188 25.984375 90.042969 C 26.125 91.046875 26.433594 92.609375 26.003906 93.574219 C 25.832031 93.960938 26.394531 93.082031 26.449219 92.953125 C 26.792969 92.175781 26.703125 91.253906 26.652344 90.421875 C 26.621094 89.910156 26.5625 89.398438 26.488281 88.890625 C 26.359375 87.972656 27.457031 87.5 27.839844 87.0625 C 28.273438 86.574219 28.632812 86.035156 28.941406 85.464844 C 29.414062 84.589844 29.816406 83.667969 30.0625 82.699219 C 30.015625 82.878906 28.582031 85.761719 27.714844 86.507812 " fill-opacity="1" fill-rule="nonzero"/><path fill="#000000" d="M 24.890625 95.671875 C 24.878906 95.066406 25.199219 94.316406 25.601562 94.070312 C 26.359375 93.605469 27.007812 93.214844 27.597656 92.546875 C 29.378906 90.511719 30.242188 87.75 30.816406 85.109375 C 30.765625 85.347656 28.90625 91.171875 26.226562 92.859375 C 25.699219 93.191406 25.328125 93.4375 24.984375 93.964844 C 23.4375 96.328125 24.316406 99.851562 24.621094 102.464844 C 25.574219 110.609375 28.316406 118.882812 27.382812 127.148438 C 27.410156 126.9375 29.890625 125.066406 25.304688 100.9375 C 24.972656 99.207031 24.921875 97.429688 24.890625 95.671875 " fill-opacity="1" fill-rule="nonzero"/><path fill="#000000" d="M 24.742188 112.886719 C 24.351562 111.15625 23.730469 109.496094 23.238281 107.792969 C 22.996094 106.953125 22.679688 105.777344 23.164062 104.972656 C 23.5 104.414062 23.847656 103.847656 24.089844 103.234375 C 24.664062 101.789062 24.886719 100.191406 24.980469 98.640625 C 24.96875 98.789062 24.367188 98.027344 24.351562 98.324219 C 24.25 100.046875 23.710938 103.210938 22.800781 104.699219 C 22.046875 105.933594 22.269531 106.921875 22.605469 108.367188 C 22.988281 110 23.640625 111.566406 24.058594 113.191406 C 24.714844 115.746094 25.261719 118.289062 25.066406 120.882812 C 25.078125 120.722656 25.859375 117.8125 24.742188 112.886719 " fill-opacity="1" fill-rule="nonzero"/><path fill="#000000" d="M 25.453125 111.527344 C 25.496094 111.710938 26.089844 119.328125 26.109375 122.773438 C 26.125 125.269531 25.738281 127.71875 25.171875 130.148438 C 24.3125 133.832031 21.921875 136.40625 21.800781 136.480469 C 22.867188 135.820312 23.957031 134.558594 24.507812 133.472656 C 25.652344 131.234375 26.105469 129.300781 26.496094 126.820312 C 27.246094 122.050781 26.605469 116.210938 25.453125 111.527344 " fill-opacity="1" fill-rule="nonzero"/><path fill="#000000" d="M 24.429688 112.191406 C 24.433594 112.320312 23.546875 110.789062 23.554688 111.078125 C 23.691406 114.511719 23.050781 119.738281 21.828125 122.894531 C 20.476562 126.378906 17.757812 130.09375 13.898438 131.054688 C 13.613281 131.128906 18.035156 130.925781 21.492188 125.425781 C 23.839844 121.6875 24.605469 116.664062 24.429688 112.191406 " fill-opacity="1" fill-rule="nonzero"/><path fill="#000000" d="M 33.515625 91.027344 C 33.527344 91.148438 33.089844 96.253906 31.0625 102.46875 C 29.800781 106.332031 29.566406 110.152344 29.511719 114.226562 C 29.460938 118.390625 30.132812 122.535156 30.496094 126.675781 C 30.792969 130.019531 31.320312 133.773438 30.433594 137.066406 C 30.484375 136.882812 30.894531 136.484375 30.976562 136.179688 C 31.863281 132.886719 31.328125 129.136719 31.039062 125.792969 C 30.679688 121.640625 30.15625 117.492188 30.175781 113.320312 C 30.191406 109.253906 30.898438 105.316406 32.035156 101.425781 C 33.03125 98.023438 33.796875 94.601562 33.515625 91.027344 " fill-opacity="1" fill-rule="nonzero"/><path fill="#000000" d="M 36.695312 137.867188 C 36.273438 135.222656 35.597656 132.628906 34.910156 130.042969 C 34.199219 127.375 33.46875 124.804688 33.1875 122.039062 C 33.015625 120.375 32.929688 118.683594 32.960938 117.011719 C 32.957031 117.152344 31.777344 122.59375 34.136719 130.101562 C 34.929688 132.625 35.460938 135.226562 35.972656 137.820312 C 36.410156 140.015625 36.886719 142.347656 36.707031 144.597656 C 36.71875 144.441406 37.414062 142.402344 36.695312 137.867188 " fill-opacity="1" fill-rule="nonzero"/><path fill="#000000" d="M 36.820312 146.066406 C 36.617188 146.433594 36.257812 147.46875 35.828125 147.980469 C 35.253906 148.664062 34.699219 149.386719 33.886719 148.746094 C 32.804688 147.886719 32.117188 146.28125 31.570312 145.042969 C 31.621094 145.167969 30.515625 144.867188 30.625 145.109375 C 31.09375 146.167969 32.835938 150.417969 34.355469 149.929688 C 35.769531 149.476562 36.855469 147.222656 37.53125 146.007812 C 37.898438 145.351562 36.984375 145.769531 36.820312 146.066406 " fill-opacity="1" fill-rule="nonzero"/><path fill="#000000" d="M 37.308594 71.738281 C 35.996094 74.605469 34.445312 77.082031 32.132812 79.234375 C 31.351562 79.964844 28.960938 82.101562 27.714844 81.398438 C 27.640625 81.359375 27.113281 82.292969 27.179688 82.332031 C 27.734375 82.644531 28.46875 82.257812 28.972656 82.003906 C 30.199219 81.390625 31.488281 80.636719 32.453125 79.671875 C 34.355469 77.769531 35.910156 75.328125 37.136719 72.9375 C 39.027344 69.257812 40.238281 65.300781 41.417969 61.335938 C 41.363281 61.523438 38.703125 68.695312 37.308594 71.738281 " fill-opacity="1" fill-rule="nonzero"/><path fill="#000000" d="M 43.71875 79.046875 C 42.714844 78.375 42.289062 77.0625 41.960938 75.957031 C 41.460938 74.269531 41.007812 72.53125 40.832031 70.785156 C 40.597656 68.511719 40.527344 66.214844 40.554688 63.933594 C 40.550781 64.070312 40.207031 64.476562 40.203125 64.773438 C 40.175781 67.058594 40.292969 69.355469 40.515625 71.632812 C 40.679688 73.328125 40.925781 75.027344 41.363281 76.675781 C 41.675781 77.84375 42.128906 79.273438 43.183594 79.980469 C 43.230469 80.011719 43.804688 79.105469 43.71875 79.046875 " fill-opacity="1" fill-rule="nonzero"/><path fill="#d01010" d="M 24.230469 32.167969 C 24.675781 31.40625 26.535156 31.53125 29.511719 32.289062 C 32.492188 33.046875 32.769531 32.328125 33.761719 31.570312 C 34.753906 30.8125 37.695312 30.136719 39.242188 31.96875 C 40.792969 33.804688 39.480469 36.152344 38.882812 37.230469 C 38.289062 38.304688 36.78125 39.023438 36.9375 39.261719 C 37.097656 39.503906 38.089844 39.144531 38.128906 39.742188 C 38.167969 40.339844 38.167969 43.964844 39.003906 46.355469 C 39.835938 48.746094 42.695312 53.371094 44.207031 57.234375 C 45.714844 61.101562 45.875 65.445312 45.597656 68.15625 C 45.316406 70.867188 44.367188 77.441406 43.53125 77.320312 C 42.695312 77.203125 40.832031 70.785156 40.949219 68.234375 C 41.070312 65.683594 41.027344 63.015625 41.585938 61.621094 C 42.140625 60.226562 41.863281 60.183594 41.265625 61.101562 C 40.671875 62.019531 39.003906 66.441406 37.574219 69.351562 C 36.144531 72.261719 33.324219 77.679688 30.863281 79.355469 C 28.402344 81.027344 27.726562 80.710938 27.328125 78.117188 C 26.933594 75.53125 24.269531 65.445312 24.230469 61.539062 C 24.191406 57.636719 25.78125 53.808594 26.734375 51.179688 C 27.6875 48.546875 27.964844 45.957031 27.648438 44.363281 C 27.328125 42.769531 26.574219 41.296875 26.972656 41.175781 C 27.367188 41.054688 28.320312 42.171875 28.28125 41.214844 C 28.242188 40.257812 26.972656 40.179688 25.660156 38.546875 C 24.351562 36.910156 22.882812 34.480469 24.230469 32.167969 " fill-opacity="1" fill-rule="nonzero"/><path fill="#d01010" d="M 40.078125 68.515625 C 40.136719 68.660156 39.878906 70.507812 40.234375 73.058594 C 40.582031 75.542969 41.664062 79.234375 42.179688 79.792969 C 42.695312 80.351562 41.863281 81.265625 41.503906 82.941406 C 41.148438 84.617188 40.234375 91.667969 40.632812 92.863281 C 41.03125 94.058594 41.941406 95.296875 41.664062 97.449219 C 41.386719 99.601562 39.558594 108.289062 39.363281 109.84375 C 39.164062 111.394531 39.601562 111.078125 39.878906 110.082031 C 40.15625 109.085938 41.148438 105.617188 41.464844 105.65625 C 41.785156 105.699219 42.617188 107.449219 41.785156 109.722656 C 40.949219 111.992188 39.679688 114.585938 39.835938 116.777344 C 39.996094 118.96875 40.871094 120.640625 40.910156 118.808594 C 40.949219 116.976562 41.59375 112.90625 41.863281 113.257812 C 43.144531 114.933594 41.804688 118.910156 42.191406 122.882812 C 42.347656 124.507812 40.316406 121.558594 39.597656 119.40625 C 38.886719 117.253906 39.640625 115.261719 39.558594 114.503906 C 39.480469 113.746094 37.605469 116.03125 38.082031 118.699219 C 38.558594 121.371094 41.902344 128.8125 43.332031 132.71875 C 44.761719 136.621094 46.097656 141.289062 45.320312 142.359375 C 44.539062 143.4375 41.425781 143.4375 41.347656 142.242188 C 41.269531 141.046875 40.59375 135.546875 40.195312 135.546875 C 39.796875 135.546875 39.640625 139.691406 39.640625 141.324219 C 39.640625 142.960938 39.441406 145.070312 38.605469 145.191406 C 37.773438 145.3125 37.496094 143.316406 37.496094 140.925781 C 37.496094 138.535156 36.621094 133.832031 35.269531 129.488281 C 33.921875 125.144531 33.324219 119.328125 33.445312 116.855469 C 33.5625 114.386719 32.53125 116.457031 32.292969 118.25 C 32.054688 120.042969 32.53125 124.746094 33.324219 128.492188 C 34.121094 132.238281 36.660156 143.714844 35.789062 144.074219 C 34.914062 144.433594 29.355469 143.597656 27.089844 141.683594 C 24.828125 139.769531 21.410156 137.898438 19.507812 138.734375 C 17.601562 139.570312 14.382812 140.488281 12.4375 139.371094 C 10.492188 138.257812 10.015625 138.175781 10.769531 136.382812 C 11.523438 134.589844 11.167969 131.921875 9.339844 131.839844 C 7.515625 131.761719 1.914062 133.632812 2.3125 132.558594 C 2.707031 131.480469 4.257812 129.167969 6.878906 129.449219 C 9.5 129.726562 11.246094 130.40625 13.3125 129.925781 C 15.375 129.449219 16.410156 129.328125 15.457031 129.847656 C 14.503906 130.367188 11.882812 131.480469 14.382812 131.441406 C 16.886719 131.402344 19.507812 129.609375 20.9375 127.296875 C 22.367188 124.984375 23.476562 120.839844 24.191406 121.039062 C 24.90625 121.238281 25.660156 124.867188 25.066406 128.253906 C 24.46875 131.640625 22.761719 134.273438 21.929688 135.46875 C 21.09375 136.664062 20.65625 137.9375 22.800781 136.382812 C 24.945312 134.828125 26.457031 130.167969 26.734375 128.851562 C 27.011719 127.535156 27.527344 128.8125 28.125 126.261719 C 28.71875 123.710938 28.757812 119.644531 28.28125 117.015625 C 27.804688 114.386719 26.414062 103.34375 26.097656 101.832031 C 25.78125 100.316406 24.628906 95.535156 25.820312 94.378906 C 27.011719 93.222656 28.71875 92.902344 29.949219 89.238281 C 31.179688 85.570312 31.261719 83.9375 30.902344 84.097656 C 30.546875 84.253906 29.453125 89.554688 27.289062 91.210938 C 27.0625 91.382812 26.613281 88.839844 27.367188 87.960938 C 28.125 87.085938 30.269531 84.355469 30.226562 83.160156 C 30.1875 81.964844 29.988281 82.203125 29.871094 82.5625 C 29.796875 82.78125 28.671875 85.179688 28.300781 85.3125 C 28.066406 85.398438 28.265625 83.328125 28.203125 83.082031 C 28.042969 82.441406 29.1875 82.5625 30.425781 81.546875 C 31.738281 80.472656 33.164062 78.855469 35.25 76.523438 C 36.9375 74.640625 39.441406 66.960938 40.078125 68.515625 " fill-opacity="1" fill-rule="nonzero"/><path fill="#d01010" d="M 44.035156 126.949219 C 44.492188 127.425781 45.167969 125.515625 44.632812 124.136719 C 44.097656 122.761719 43.738281 123.363281 43.441406 121.628906 C 43.144531 119.894531 43.054688 118.371094 43.324219 118.28125 C 43.589844 118.191406 46.003906 122.761719 47.3125 126.109375 C 48.625 129.460938 51.304688 136.632812 50.828125 137.46875 C 50.351562 138.308594 48.265625 138.1875 47.96875 138.425781 C 47.671875 138.664062 46.921875 140.265625 46.566406 137.738281 C 45.855469 132.628906 41.417969 124.199219 44.035156 126.949219 " fill-opacity="1" fill-rule="nonzero"/><path fill="#d01010" d="M 32.390625 146.285156 C 32.144531 146.390625 33.910156 148.707031 34.476562 148.617188 C 35.042969 148.527344 36.5625 146.675781 36.175781 146.378906 C 35.789062 146.078125 34.269531 145.507812 32.390625 146.285156 " fill-opacity="1" fill-rule="nonzero"/><path fill="#d01010" d="M 24.410156 104.054688 C 24.320312 103.863281 23.277344 104.859375 23.1875 105.757812 C 23.101562 106.652344 24.46875 110.660156 24.796875 111.675781 C 25.125 112.691406 25.453125 114.453125 25.394531 113.589844 C 25.332031 112.71875 25.242188 110.867188 25.273438 110.417969 C 25.304688 109.972656 25.09375 105.488281 24.410156 104.054688 " fill-opacity="1" fill-rule="nonzero"/></g></g></g><g fill="#52442e" fill-opacity="1"><g transform="translate(100.615545, 235.721572)"><g><path d="M 7.0625 0 L 4.515625 0 L 4.515625 -0.1875 C 4.785156 -0.1875 4.96875 -0.21875 5.0625 -0.28125 C 5.15625 -0.320312 5.203125 -0.398438 5.203125 -0.515625 C 5.203125 -0.679688 5.140625 -0.910156 5.015625 -1.203125 L 4.609375 -2.15625 L 1.984375 -2.15625 L 1.53125 -0.984375 C 1.476562 -0.847656 1.453125 -0.71875 1.453125 -0.59375 C 1.453125 -0.320312 1.675781 -0.1875 2.125 -0.1875 L 2.125 0 L 0.15625 0 L 0.15625 -0.1875 C 0.394531 -0.195312 0.578125 -0.289062 0.703125 -0.46875 C 0.835938 -0.644531 1.066406 -1.097656 1.390625 -1.828125 L 3.46875 -6.734375 L 3.671875 -6.734375 L 6.15625 -1.0625 C 6.332031 -0.6875 6.46875 -0.445312 6.5625 -0.34375 C 6.664062 -0.25 6.832031 -0.195312 7.0625 -0.1875 Z M 4.46875 -2.5625 L 3.3125 -5.3125 L 2.15625 -2.5625 Z M 4.46875 -2.5625 "/></g></g></g><g fill="#52442e" fill-opacity="1"><g transform="translate(109.832692, 235.721572)"><g><path d="M 5.984375 -1.734375 L 5.5 0 L 0.125 0 L 0.125 -0.1875 C 0.488281 -0.21875 0.722656 -0.285156 0.828125 -0.390625 C 0.929688 -0.503906 0.984375 -0.738281 0.984375 -1.09375 L 0.984375 -5.53125 C 0.984375 -5.882812 0.929688 -6.113281 0.828125 -6.21875 C 0.734375 -6.320312 0.5 -6.394531 0.125 -6.4375 L 0.125 -6.625 L 2.9375 -6.625 L 2.9375 -6.4375 C 2.539062 -6.40625 2.285156 -6.332031 2.171875 -6.21875 C 2.066406 -6.113281 2.015625 -5.882812 2.015625 -5.53125 L 2.015625 -0.796875 C 2.015625 -0.628906 2.0625 -0.519531 2.15625 -0.46875 C 2.257812 -0.414062 2.5 -0.390625 2.875 -0.390625 L 3.546875 -0.390625 C 4.378906 -0.390625 4.960938 -0.59375 5.296875 -1 C 5.421875 -1.144531 5.566406 -1.390625 5.734375 -1.734375 Z M 5.984375 -1.734375 "/></g></g></g><g fill="#52442e" fill-opacity="1"><g transform="translate(117.940277, 235.721572)"><g><path d="M 7.046875 -6.4375 C 6.640625 -6.375 6.378906 -6.269531 6.265625 -6.125 C 6.160156 -5.976562 6.109375 -5.65625 6.109375 -5.15625 L 6.109375 -2.546875 C 6.109375 -1.828125 6 -1.273438 5.78125 -0.890625 C 5.382812 -0.203125 4.640625 0.140625 3.546875 0.140625 C 2.691406 0.140625 2.0625 -0.0664062 1.65625 -0.484375 C 1.25 -0.898438 1.046875 -1.539062 1.046875 -2.40625 L 1.046875 -5.53125 C 1.046875 -5.894531 0.992188 -6.125 0.890625 -6.21875 C 0.785156 -6.320312 0.535156 -6.394531 0.140625 -6.4375 L 0.140625 -6.625 L 2.96875 -6.625 L 2.96875 -6.4375 C 2.570312 -6.394531 2.320312 -6.320312 2.21875 -6.21875 C 2.113281 -6.113281 2.0625 -5.882812 2.0625 -5.53125 L 2.0625 -2.328125 C 2.0625 -1.742188 2.144531 -1.304688 2.3125 -1.015625 C 2.582031 -0.535156 3.070312 -0.296875 3.78125 -0.296875 C 4.15625 -0.296875 4.488281 -0.367188 4.78125 -0.515625 C 5.082031 -0.660156 5.300781 -0.851562 5.4375 -1.09375 C 5.59375 -1.375 5.671875 -1.828125 5.671875 -2.453125 L 5.671875 -5.15625 C 5.671875 -5.65625 5.609375 -5.984375 5.484375 -6.140625 C 5.367188 -6.304688 5.117188 -6.40625 4.734375 -6.4375 L 4.734375 -6.625 L 7.046875 -6.625 Z M 7.046875 -6.4375 "/></g></g></g><g fill="#52442e" fill-opacity="1"><g transform="translate(127.157425, 235.721572)"><g><path d="M 7.09375 -3.359375 C 6.800781 -3.328125 6.609375 -3.265625 6.515625 -3.171875 C 6.429688 -3.078125 6.390625 -2.882812 6.390625 -2.59375 L 6.390625 -0.5625 C 6.191406 -0.382812 5.828125 -0.222656 5.296875 -0.078125 C 4.773438 0.0664062 4.300781 0.140625 3.875 0.140625 C 2.75 0.140625 1.84375 -0.21875 1.15625 -0.9375 C 0.59375 -1.507812 0.3125 -2.28125 0.3125 -3.25 C 0.3125 -4.269531 0.632812 -5.109375 1.28125 -5.765625 C 1.925781 -6.429688 2.75 -6.765625 3.75 -6.765625 C 4.195312 -6.765625 4.648438 -6.6875 5.109375 -6.53125 C 5.285156 -6.46875 5.429688 -6.4375 5.546875 -6.4375 C 5.648438 -6.4375 5.742188 -6.46875 5.828125 -6.53125 C 5.910156 -6.59375 5.96875 -6.671875 6 -6.765625 L 6.21875 -6.765625 L 6.296875 -4.65625 L 6.0625 -4.65625 C 5.84375 -5.1875 5.609375 -5.570312 5.359375 -5.8125 C 4.960938 -6.175781 4.484375 -6.359375 3.921875 -6.359375 C 3.210938 -6.359375 2.632812 -6.101562 2.1875 -5.59375 C 1.957031 -5.351562 1.773438 -5.019531 1.640625 -4.59375 C 1.515625 -4.164062 1.453125 -3.722656 1.453125 -3.265625 C 1.453125 -2.335938 1.6875 -1.601562 2.15625 -1.0625 C 2.632812 -0.53125 3.28125 -0.265625 4.09375 -0.265625 C 4.445312 -0.265625 4.753906 -0.320312 5.015625 -0.4375 C 5.285156 -0.550781 5.421875 -0.6875 5.421875 -0.84375 L 5.421875 -2.46875 C 5.421875 -2.882812 5.347656 -3.132812 5.203125 -3.21875 C 5.097656 -3.28125 4.878906 -3.328125 4.546875 -3.359375 L 4.546875 -3.546875 L 7.09375 -3.546875 Z M 7.09375 -3.359375 "/></g></g></g><g fill="#52442e" fill-opacity="1"><g transform="translate(136.37457, 235.721572)"><g><path d="M 7.046875 -6.4375 C 6.640625 -6.375 6.378906 -6.269531 6.265625 -6.125 C 6.160156 -5.976562 6.109375 -5.65625 6.109375 -5.15625 L 6.109375 -2.546875 C 6.109375 -1.828125 6 -1.273438 5.78125 -0.890625 C 5.382812 -0.203125 4.640625 0.140625 3.546875 0.140625 C 2.691406 0.140625 2.0625 -0.0664062 1.65625 -0.484375 C 1.25 -0.898438 1.046875 -1.539062 1.046875 -2.40625 L 1.046875 -5.53125 C 1.046875 -5.894531 0.992188 -6.125 0.890625 -6.21875 C 0.785156 -6.320312 0.535156 -6.394531 0.140625 -6.4375 L 0.140625 -6.625 L 2.96875 -6.625 L 2.96875 -6.4375 C 2.570312 -6.394531 2.320312 -6.320312 2.21875 -6.21875 C 2.113281 -6.113281 2.0625 -5.882812 2.0625 -5.53125 L 2.0625 -2.328125 C 2.0625 -1.742188 2.144531 -1.304688 2.3125 -1.015625 C 2.582031 -0.535156 3.070312 -0.296875 3.78125 -0.296875 C 4.15625 -0.296875 4.488281 -0.367188 4.78125 -0.515625 C 5.082031 -0.660156 5.300781 -0.851562 5.4375 -1.09375 C 5.59375 -1.375 5.671875 -1.828125 5.671875 -2.453125 L 5.671875 -5.15625 C 5.671875 -5.65625 5.609375 -5.984375 5.484375 -6.140625 C 5.367188 -6.304688 5.117188 -6.40625 4.734375 -6.4375 L 4.734375 -6.625 L 7.046875 -6.625 Z M 7.046875 -6.4375 "/></g></g></g><g fill="#52442e" fill-opacity="1"><g transform="translate(145.591716, 235.721572)"><g><path d="M 5.96875 -1.6875 L 5.515625 0 L 0.125 0 L 0.125 -0.1875 C 0.488281 -0.21875 0.722656 -0.285156 0.828125 -0.390625 C 0.929688 -0.503906 0.984375 -0.738281 0.984375 -1.09375 L 0.984375 -5.53125 C 0.984375 -5.882812 0.929688 -6.113281 0.828125 -6.21875 C 0.734375 -6.320312 0.5 -6.394531 0.125 -6.4375 L 0.125 -6.625 L 5.4375 -6.625 L 5.453125 -5.1875 L 5.203125 -5.1875 C 5.117188 -5.632812 4.988281 -5.921875 4.8125 -6.046875 C 4.632812 -6.171875 4.257812 -6.234375 3.6875 -6.234375 L 2.34375 -6.234375 C 2.207031 -6.234375 2.117188 -6.210938 2.078125 -6.171875 C 2.035156 -6.128906 2.015625 -6.039062 2.015625 -5.90625 L 2.015625 -3.6875 L 3.546875 -3.6875 C 3.953125 -3.6875 4.21875 -3.738281 4.34375 -3.84375 C 4.476562 -3.957031 4.582031 -4.21875 4.65625 -4.625 L 4.875 -4.625 L 4.875 -2.3125 L 4.65625 -2.3125 C 4.582031 -2.726562 4.484375 -2.988281 4.359375 -3.09375 C 4.234375 -3.207031 3.960938 -3.265625 3.546875 -3.265625 L 2.015625 -3.265625 L 2.015625 -0.796875 C 2.015625 -0.617188 2.039062 -0.515625 2.09375 -0.484375 C 2.1875 -0.410156 2.507812 -0.375 3.0625 -0.375 L 3.328125 -0.375 C 4.046875 -0.375 4.554688 -0.457031 4.859375 -0.625 C 5.160156 -0.789062 5.4375 -1.144531 5.6875 -1.6875 Z M 5.96875 -1.6875 "/></g></g></g><g fill="#52442e" fill-opacity="1"><g transform="translate(153.699299, 235.721572)"><g><path d="M 5.984375 -1.734375 L 5.5 0 L 0.125 0 L 0.125 -0.1875 C 0.488281 -0.21875 0.722656 -0.285156 0.828125 -0.390625 C 0.929688 -0.503906 0.984375 -0.738281 0.984375 -1.09375 L 0.984375 -5.53125 C 0.984375 -5.882812 0.929688 -6.113281 0.828125 -6.21875 C 0.734375 -6.320312 0.5 -6.394531 0.125 -6.4375 L 0.125 -6.625 L 2.9375 -6.625 L 2.9375 -6.4375 C 2.539062 -6.40625 2.285156 -6.332031 2.171875 -6.21875 C 2.066406 -6.113281 2.015625 -5.882812 2.015625 -5.53125 L 2.015625 -0.796875 C 2.015625 -0.628906 2.0625 -0.519531 2.15625 -0.46875 C 2.257812 -0.414062 2.5 -0.390625 2.875 -0.390625 L 3.546875 -0.390625 C 4.378906 -0.390625 4.960938 -0.59375 5.296875 -1 C 5.421875 -1.144531 5.566406 -1.390625 5.734375 -1.734375 Z M 5.984375 -1.734375 "/></g></g></g><g fill="#52442e" fill-opacity="1"><g transform="translate(161.806883, 235.721572)"><g/></g></g><g fill="#52442e" fill-opacity="1"><g transform="translate(166.305892, 235.721572)"><g><path d="M 6.84375 -3.34375 C 6.84375 -2.320312 6.503906 -1.503906 5.828125 -0.890625 C 5.523438 -0.609375 5.125 -0.390625 4.625 -0.234375 C 4.125 -0.078125 3.582031 0 3 0 L 0.15625 0 L 0.15625 -0.1875 C 0.539062 -0.21875 0.785156 -0.285156 0.890625 -0.390625 C 0.992188 -0.492188 1.046875 -0.726562 1.046875 -1.09375 L 1.046875 -5.53125 C 1.046875 -5.894531 0.992188 -6.125 0.890625 -6.21875 C 0.796875 -6.320312 0.550781 -6.394531 0.15625 -6.4375 L 0.15625 -6.625 L 2.859375 -6.625 C 4.265625 -6.625 5.3125 -6.269531 6 -5.5625 C 6.5625 -5 6.84375 -4.257812 6.84375 -3.34375 Z M 5.765625 -3.265625 C 5.765625 -4.378906 5.363281 -5.207031 4.5625 -5.75 C 4.09375 -6.082031 3.429688 -6.25 2.578125 -6.25 C 2.367188 -6.25 2.226562 -6.222656 2.15625 -6.171875 C 2.09375 -6.117188 2.0625 -6.015625 2.0625 -5.859375 L 2.0625 -0.78125 C 2.0625 -0.625 2.097656 -0.515625 2.171875 -0.453125 C 2.242188 -0.398438 2.378906 -0.375 2.578125 -0.375 C 3.398438 -0.375 4.054688 -0.507812 4.546875 -0.78125 C 5.359375 -1.25 5.765625 -2.078125 5.765625 -3.265625 Z M 5.765625 -3.265625 "/></g></g></g><g fill="#52442e" fill-opacity="1"><g transform="translate(175.523038, 235.721572)"><g><path d="M 5.96875 -1.6875 L 5.515625 0 L 0.125 0 L 0.125 -0.1875 C 0.488281 -0.21875 0.722656 -0.285156 0.828125 -0.390625 C 0.929688 -0.503906 0.984375 -0.738281 0.984375 -1.09375 L 0.984375 -5.53125 C 0.984375 -5.882812 0.929688 -6.113281 0.828125 -6.21875 C 0.734375 -6.320312 0.5 -6.394531 0.125 -6.4375 L 0.125 -6.625 L 5.4375 -6.625 L 5.453125 -5.1875 L 5.203125 -5.1875 C 5.117188 -5.632812 4.988281 -5.921875 4.8125 -6.046875 C 4.632812 -6.171875 4.257812 -6.234375 3.6875 -6.234375 L 2.34375 -6.234375 C 2.207031 -6.234375 2.117188 -6.210938 2.078125 -6.171875 C 2.035156 -6.128906 2.015625 -6.039062 2.015625 -5.90625 L 2.015625 -3.6875 L 3.546875 -3.6875 C 3.953125 -3.6875 4.21875 -3.738281 4.34375 -3.84375 C 4.476562 -3.957031 4.582031 -4.21875 4.65625 -4.625 L 4.875 -4.625 L 4.875 -2.3125 L 4.65625 -2.3125 C 4.582031 -2.726562 4.484375 -2.988281 4.359375 -3.09375 C 4.234375 -3.207031 3.960938 -3.265625 3.546875 -3.265625 L 2.015625 -3.265625 L 2.015625 -0.796875 C 2.015625 -0.617188 2.039062 -0.515625 2.09375 -0.484375 C 2.1875 -0.410156 2.507812 -0.375 3.0625 -0.375 L 3.328125 -0.375 C 4.046875 -0.375 4.554688 -0.457031 4.859375 -0.625 C 5.160156 -0.789062 5.4375 -1.144531 5.6875 -1.6875 Z M 5.96875 -1.6875 "/></g></g></g><g fill="#52442e" fill-opacity="1"><g transform="translate(183.630621, 235.721572)"><g/></g></g><g fill="#52442e" fill-opacity="1"><g transform="translate(188.129631, 235.721572)"><g><path d="M 6.96875 -6.4375 C 6.726562 -6.414062 6.554688 -6.351562 6.453125 -6.25 C 6.347656 -6.144531 6.210938 -5.894531 6.046875 -5.5 L 3.828125 0.109375 L 3.6875 0.109375 L 1.21875 -5.375 C 1.007812 -5.820312 0.84375 -6.109375 0.71875 -6.234375 C 0.59375 -6.359375 0.40625 -6.425781 0.15625 -6.4375 L 0.15625 -6.625 L 2.8125 -6.625 L 2.8125 -6.4375 C 2.632812 -6.414062 2.539062 -6.40625 2.53125 -6.40625 C 2.21875 -6.382812 2.0625 -6.28125 2.0625 -6.09375 C 2.0625 -5.96875 2.203125 -5.597656 2.484375 -4.984375 L 3.984375 -1.609375 L 5.453125 -5.28125 C 5.585938 -5.601562 5.65625 -5.847656 5.65625 -6.015625 C 5.65625 -6.148438 5.597656 -6.25 5.484375 -6.3125 C 5.378906 -6.375 5.191406 -6.414062 4.921875 -6.4375 L 4.921875 -6.625 L 6.96875 -6.625 Z M 6.96875 -6.4375 "/></g></g></g><g fill="#52442e" fill-opacity="1"><g transform="translate(197.346782, 235.721572)"><g><path d="M 5.96875 -1.6875 L 5.515625 0 L 0.125 0 L 0.125 -0.1875 C 0.488281 -0.21875 0.722656 -0.285156 0.828125 -0.390625 C 0.929688 -0.503906 0.984375 -0.738281 0.984375 -1.09375 L 0.984375 -5.53125 C 0.984375 -5.882812 0.929688 -6.113281 0.828125 -6.21875 C 0.734375 -6.320312 0.5 -6.394531 0.125 -6.4375 L 0.125 -6.625 L 5.4375 -6.625 L 5.453125 -5.1875 L 5.203125 -5.1875 C 5.117188 -5.632812 4.988281 -5.921875 4.8125 -6.046875 C 4.632812 -6.171875 4.257812 -6.234375 3.6875 -6.234375 L 2.34375 -6.234375 C 2.207031 -6.234375 2.117188 -6.210938 2.078125 -6.171875 C 2.035156 -6.128906 2.015625 -6.039062 2.015625 -5.90625 L 2.015625 -3.6875 L 3.546875 -3.6875 C 3.953125 -3.6875 4.21875 -3.738281 4.34375 -3.84375 C 4.476562 -3.957031 4.582031 -4.21875 4.65625 -4.625 L 4.875 -4.625 L 4.875 -2.3125 L 4.65625 -2.3125 C 4.582031 -2.726562 4.484375 -2.988281 4.359375 -3.09375 C 4.234375 -3.207031 3.960938 -3.265625 3.546875 -3.265625 L 2.015625 -3.265625 L 2.015625 -0.796875 C 2.015625 -0.617188 2.039062 -0.515625 2.09375 -0.484375 C 2.1875 -0.410156 2.507812 -0.375 3.0625 -0.375 L 3.328125 -0.375 C 4.046875 -0.375 4.554688 -0.457031 4.859375 -0.625 C 5.160156 -0.789062 5.4375 -1.144531 5.6875 -1.6875 Z M 5.96875 -1.6875 "/></g></g></g><g fill="#52442e" fill-opacity="1"><g transform="translate(205.454371, 235.721572)"><g><path d="M 4.90625 -1.6875 C 4.90625 -1.164062 4.707031 -0.726562 4.3125 -0.375 C 3.925781 -0.03125 3.445312 0.140625 2.875 0.140625 C 2.46875 0.140625 2.070312 0.0625 1.6875 -0.09375 C 1.488281 -0.164062 1.332031 -0.203125 1.21875 -0.203125 C 1.144531 -0.203125 1.082031 -0.171875 1.03125 -0.109375 C 0.976562 -0.046875 0.945312 0.03125 0.9375 0.125 L 0.71875 0.125 L 0.421875 -1.984375 L 0.65625 -1.984375 C 0.90625 -1.367188 1.191406 -0.921875 1.515625 -0.640625 C 1.835938 -0.359375 2.222656 -0.21875 2.671875 -0.21875 C 3.035156 -0.21875 3.332031 -0.320312 3.5625 -0.53125 C 3.789062 -0.738281 3.90625 -1.007812 3.90625 -1.34375 C 3.90625 -1.582031 3.859375 -1.78125 3.765625 -1.9375 C 3.515625 -2.300781 3.015625 -2.6875 2.265625 -3.09375 C 1.710938 -3.394531 1.3125 -3.691406 1.0625 -3.984375 C 0.820312 -4.285156 0.703125 -4.640625 0.703125 -5.046875 C 0.703125 -5.585938 0.898438 -6.019531 1.296875 -6.34375 C 1.640625 -6.625 2.015625 -6.765625 2.421875 -6.765625 C 2.753906 -6.765625 3.113281 -6.691406 3.5 -6.546875 C 3.675781 -6.460938 3.820312 -6.421875 3.9375 -6.421875 C 4.113281 -6.421875 4.222656 -6.535156 4.265625 -6.765625 L 4.46875 -6.765625 L 4.6875 -4.625 L 4.4375 -4.625 C 4.300781 -5.125 4.097656 -5.515625 3.828125 -5.796875 C 3.472656 -6.160156 3.066406 -6.34375 2.609375 -6.34375 C 2.296875 -6.34375 2.039062 -6.257812 1.84375 -6.09375 C 1.65625 -5.925781 1.5625 -5.703125 1.5625 -5.421875 C 1.5625 -5.148438 1.675781 -4.894531 1.90625 -4.65625 C 2.132812 -4.414062 2.515625 -4.15625 3.046875 -3.875 C 3.703125 -3.507812 4.175781 -3.15625 4.46875 -2.8125 C 4.757812 -2.46875 4.90625 -2.09375 4.90625 -1.6875 Z M 4.90625 -1.6875 "/></g></g></g><g fill="#52442e" fill-opacity="1"><g transform="translate(213.012186, 235.721572)"><g><path d="M 5.9375 -4.921875 L 5.6875 -4.921875 C 5.570312 -5.472656 5.421875 -5.820312 5.234375 -5.96875 C 5.046875 -6.125 4.664062 -6.203125 4.09375 -6.203125 L 3.5625 -6.203125 L 3.5625 -1.09375 C 3.5625 -0.726562 3.617188 -0.488281 3.734375 -0.375 C 3.847656 -0.269531 4.109375 -0.207031 4.515625 -0.1875 L 4.515625 0 L 1.59375 0 L 1.59375 -0.1875 C 2.007812 -0.21875 2.269531 -0.285156 2.375 -0.390625 C 2.488281 -0.503906 2.546875 -0.773438 2.546875 -1.203125 L 2.546875 -6.203125 L 2 -6.203125 C 1.4375 -6.203125 1.0625 -6.125 0.875 -5.96875 C 0.6875 -5.8125 0.53125 -5.460938 0.40625 -4.921875 L 0.171875 -4.921875 L 0.234375 -6.625 L 5.875 -6.625 Z M 5.9375 -4.921875 "/></g></g></g><g fill="#52442e" fill-opacity="1"><g transform="translate(221.119775, 235.721572)"><g><path d="M 3.15625 0 L 0.1875 0 L 0.1875 -0.1875 C 0.601562 -0.195312 0.867188 -0.253906 0.984375 -0.359375 C 1.097656 -0.472656 1.15625 -0.71875 1.15625 -1.09375 L 1.15625 -5.53125 C 1.15625 -5.894531 1.097656 -6.128906 0.984375 -6.234375 C 0.867188 -6.335938 0.601562 -6.40625 0.1875 -6.4375 L 0.1875 -6.625 L 3.15625 -6.625 L 3.15625 -6.4375 C 2.726562 -6.414062 2.457031 -6.347656 2.34375 -6.234375 C 2.226562 -6.128906 2.171875 -5.894531 2.171875 -5.53125 L 2.171875 -1.09375 C 2.171875 -0.726562 2.226562 -0.488281 2.34375 -0.375 C 2.46875 -0.257812 2.738281 -0.195312 3.15625 -0.1875 Z M 3.15625 0 "/></g></g></g><g fill="#52442e" fill-opacity="1"><g transform="translate(226.448464, 235.721572)"><g><path d="M 6.84375 -3.34375 C 6.84375 -2.320312 6.503906 -1.503906 5.828125 -0.890625 C 5.523438 -0.609375 5.125 -0.390625 4.625 -0.234375 C 4.125 -0.078125 3.582031 0 3 0 L 0.15625 0 L 0.15625 -0.1875 C 0.539062 -0.21875 0.785156 -0.285156 0.890625 -0.390625 C 0.992188 -0.492188 1.046875 -0.726562 1.046875 -1.09375 L 1.046875 -5.53125 C 1.046875 -5.894531 0.992188 -6.125 0.890625 -6.21875 C 0.796875 -6.320312 0.550781 -6.394531 0.15625 -6.4375 L 0.15625 -6.625 L 2.859375 -6.625 C 4.265625 -6.625 5.3125 -6.269531 6 -5.5625 C 6.5625 -5 6.84375 -4.257812 6.84375 -3.34375 Z M 5.765625 -3.265625 C 5.765625 -4.378906 5.363281 -5.207031 4.5625 -5.75 C 4.09375 -6.082031 3.429688 -6.25 2.578125 -6.25 C 2.367188 -6.25 2.226562 -6.222656 2.15625 -6.171875 C 2.09375 -6.117188 2.0625 -6.015625 2.0625 -5.859375 L 2.0625 -0.78125 C 2.0625 -0.625 2.097656 -0.515625 2.171875 -0.453125 C 2.242188 -0.398438 2.378906 -0.375 2.578125 -0.375 C 3.398438 -0.375 4.054688 -0.507812 4.546875 -0.78125 C 5.359375 -1.25 5.765625 -2.078125 5.765625 -3.265625 Z M 5.765625 -3.265625 "/></g></g></g><g fill="#52442e" fill-opacity="1"><g transform="translate(235.665615, 235.721572)"><g><path d="M 6.875 -3.265625 C 6.875 -2.265625 6.566406 -1.445312 5.953125 -0.8125 C 5.335938 -0.175781 4.535156 0.140625 3.546875 0.140625 C 3.109375 0.140625 2.679688 0.0507812 2.265625 -0.125 C 1.847656 -0.3125 1.492188 -0.5625 1.203125 -0.875 C 0.929688 -1.164062 0.71875 -1.523438 0.5625 -1.953125 C 0.414062 -2.378906 0.34375 -2.832031 0.34375 -3.3125 C 0.34375 -4.3125 0.648438 -5.132812 1.265625 -5.78125 C 1.878906 -6.4375 2.660156 -6.765625 3.609375 -6.765625 C 4.585938 -6.765625 5.398438 -6.410156 6.046875 -5.703125 C 6.597656 -5.097656 6.875 -4.285156 6.875 -3.265625 Z M 5.734375 -3.28125 C 5.734375 -4.507812 5.453125 -5.382812 4.890625 -5.90625 C 4.515625 -6.238281 4.085938 -6.40625 3.609375 -6.40625 C 3.046875 -6.40625 2.570312 -6.1875 2.1875 -5.75 C 1.96875 -5.519531 1.796875 -5.175781 1.671875 -4.71875 C 1.546875 -4.269531 1.484375 -3.796875 1.484375 -3.296875 C 1.484375 -2.734375 1.554688 -2.21875 1.703125 -1.75 C 1.859375 -1.28125 2.066406 -0.929688 2.328125 -0.703125 C 2.691406 -0.378906 3.113281 -0.21875 3.59375 -0.21875 C 4.125 -0.21875 4.566406 -0.394531 4.921875 -0.75 C 5.160156 -0.976562 5.320312 -1.222656 5.40625 -1.484375 C 5.625 -2.054688 5.734375 -2.65625 5.734375 -3.28125 Z M 5.734375 -3.28125 "/></g></g></g><g fill="#52442e" fill-opacity="1"><g transform="translate(244.882767, 235.721572)"><g><path d="M 4.90625 -1.6875 C 4.90625 -1.164062 4.707031 -0.726562 4.3125 -0.375 C 3.925781 -0.03125 3.445312 0.140625 2.875 0.140625 C 2.46875 0.140625 2.070312 0.0625 1.6875 -0.09375 C 1.488281 -0.164062 1.332031 -0.203125 1.21875 -0.203125 C 1.144531 -0.203125 1.082031 -0.171875 1.03125 -0.109375 C 0.976562 -0.046875 0.945312 0.03125 0.9375 0.125 L 0.71875 0.125 L 0.421875 -1.984375 L 0.65625 -1.984375 C 0.90625 -1.367188 1.191406 -0.921875 1.515625 -0.640625 C 1.835938 -0.359375 2.222656 -0.21875 2.671875 -0.21875 C 3.035156 -0.21875 3.332031 -0.320312 3.5625 -0.53125 C 3.789062 -0.738281 3.90625 -1.007812 3.90625 -1.34375 C 3.90625 -1.582031 3.859375 -1.78125 3.765625 -1.9375 C 3.515625 -2.300781 3.015625 -2.6875 2.265625 -3.09375 C 1.710938 -3.394531 1.3125 -3.691406 1.0625 -3.984375 C 0.820312 -4.285156 0.703125 -4.640625 0.703125 -5.046875 C 0.703125 -5.585938 0.898438 -6.019531 1.296875 -6.34375 C 1.640625 -6.625 2.015625 -6.765625 2.421875 -6.765625 C 2.753906 -6.765625 3.113281 -6.691406 3.5 -6.546875 C 3.675781 -6.460938 3.820312 -6.421875 3.9375 -6.421875 C 4.113281 -6.421875 4.222656 -6.535156 4.265625 -6.765625 L 4.46875 -6.765625 L 4.6875 -4.625 L 4.4375 -4.625 C 4.300781 -5.125 4.097656 -5.515625 3.828125 -5.796875 C 3.472656 -6.160156 3.066406 -6.34375 2.609375 -6.34375 C 2.296875 -6.34375 2.039062 -6.257812 1.84375 -6.09375 C 1.65625 -5.925781 1.5625 -5.703125 1.5625 -5.421875 C 1.5625 -5.148438 1.675781 -4.894531 1.90625 -4.65625 C 2.132812 -4.414062 2.515625 -4.15625 3.046875 -3.875 C 3.703125 -3.507812 4.175781 -3.15625 4.46875 -2.8125 C 4.757812 -2.46875 4.90625 -2.09375 4.90625 -1.6875 Z M 4.90625 -1.6875 "/></g></g></g></svg>